# xmcd
#
# Track frame offsets:
#	150
#	13712
#	31049
#	47243
#	68980
#	89854
#	112649
#	127288
#	146337
#	164889
#	185401
#	201331
#
# Disc length: 2886 seconds
#
# Revision: 0
# Processed by: cddbd v1.5PL3 Copyright (c) Steve Scherf et al.
# Submitted via: dBpowerAMP V4.0
#
DISCID=b10b440c
DTITLE=Robin Brock - Hidden Power
DYEAR=1900
DGENRE=Country
TTITLE0=I'm Doin' Fine (Without You)
TTITLE1=These Walls
TTITLE2=(I Wish You Could) Read My Mind
TTITLE3=Don't
TTITLE4=The Game
TTITLE5=You Let Me
TTITLE6=I Surrender
TTITLE7=In This Skin
TTITLE8=After the Storm
TTITLE9=Naked
TTITLE10=Goodess of Rock n' Roll
TTITLE11=That Scares Me
EXTD=A2 Records\nwww.a2records.com\n2001 relese
EXTT0=
EXTT1=
EXTT2=
EXTT3=
EXTT4=
EXTT5=
EXTT6=
EXTT7=
EXTT8=
EXTT9=
EXTT10=
EXTT11=
PLAYORDER=
